<?xml version="1.0" encoding="UTF-8"?>
<!DOCTYPE svg PUBLIC "-//W3C//DTD SVG 1.1//EN"
"http://www.w3.org/Graphics/SVG/1.1/DTD/svg11-flat-20030114.dtd">
<svg xmlns="http://www.w3.org/2000/svg" >
	<g>
		<defs id="defs1">
			<clippath clipPathUnits="userSpaceOnUse" id="clipPath1">
				<path d="M0 0 L800 0 L800 400 L0 400 L0 0 Z"/>
			</clippath>
			<clippath clipPathUnits="userSpaceOnUse" id="clipPath2">
				<path d="M199.4844 162.3906 L199.4844 962.3906 L-200.5156 962.3906 L-200.5156 162.3906 L199.4844 162.3906 Z"/>
			</clippath>
			<clippath clipPathUnits="userSpaceOnUse" id="clipPath3">
				<path d="M58.7783 33.6406 L58.7783 328.2344 L787 328.2344 L787 33.6406 Z"/>
			</clippath>
		</defs>
		<g fill="rgb(255,200,0)" text-rendering="optimizeLegibility" stroke="rgb(255,200,0)">
			<rect x="0" width="800" height="400" y="0"  stroke="none"/>
		</g>
		<g text-rendering="optimizeLegibility" font-size="18" font-weight="bold" font-family="sans-serif">
			<text x="291.477"  y="19.0967"  stroke="none">Multiple XYDataset Demo</text>
		</g>
		<g fill="white" text-rendering="optimizeLegibility" font-family="sans-serif" stroke="white">
			<rect x="53.1943" width="693.6113" height="23.0938" y="375.9062"  stroke="none"/>
			<line  fill="none" x1="53.6943" x2="746.3057" y1="376.4062" y2="376.4062" stroke="black"/>
			<line  fill="none" x1="53.6943" x2="746.3057" y1="398.5" y2="398.5" stroke="black"/>
			<line  fill="none" x1="53.6943" x2="53.6943" y1="398.5" y2="376.4062" stroke="black"/>
			<line  fill="none" x1="746.3057" x2="746.3057" y1="398.5" y2="376.4062" stroke="black"/>
			<path fill="none" d="M57.1943 387.4531 L71.1943 387.4531"  stroke-linejoin="bevel" stroke="black"/>
			<path fill="none" d="M67.1943 387.4531 C67.1943 389.11 65.8512 390.4531 64.1943 390.4531 C62.5375 390.4531 61.1943 389.11 61.1943 387.4531 C61.1943 385.7963 62.5375 384.4531 64.1943 384.4531 C65.8512 384.4531 67.1943 385.7963 67.1943 387.4531 Z"  stroke="black"/>
			<text fill="black" x="75.1943"  y="391.971"  stroke="none">LG European Index Trust</text>
		</g>
		<g fill="red" text-rendering="optimizeLegibility" font-family="sans-serif" stroke-linejoin="bevel" stroke="red">
			<path fill="none" d="M215.9365 387.4531 L229.9365 387.4531" />
			<path fill="none" d="M219.9365 384.4531 L225.9365 384.4531 L225.9365 390.4531 L219.9365 390.4531 L219.9365 384.4531 Z"  stroke-linejoin="miter"/>
			<text x="233.936" y="391.971"  fill="black" stroke-linejoin="miter" stroke="none" >LG UK Index Trust MF</text>
		</g>
		<g fill="blue" text-rendering="optimizeLegibility" font-family="sans-serif" stroke-linejoin="bevel" stroke="blue">
			<path fill="none" d="M359.9658 387.4531 L373.9658 387.4531" />
			<path fill="none" d="M369.9658 387.4531 C369.9658 389.11 368.6227 390.4531 366.9658 390.4531 C365.309 390.4531 363.9658 389.11 363.9658 387.4531 C363.9658 385.7963 365.309 384.4531 366.9658 384.4531 C368.6227 384.4531 369.9658 385.7963 369.9658 387.4531 Z"  stroke-linejoin="miter"/>
			<text x="377.966" y="391.971"  fill="black" stroke-linejoin="miter" stroke="none" >LG European Index Trust Men</text>
		</g>
		<g fill="lime" text-rendering="optimizeLegibility" font-family="sans-serif" stroke-linejoin="bevel" stroke="lime">
			<path fill="none" d="M545.3857 387.4531 L559.3857 387.4531" />
			<path fill="none" d="M552.3857 384.4531 L555.3857 390.4531 L549.3857 390.4531 Z" fill-rule="evenodd"  stroke-linejoin="miter"/>
			<text x="563.386" y="391.971"  fill="black" stroke-linejoin="miter" stroke="none" >LG European Index Trust Women</text>
		</g>
		<g fill="white" text-rendering="optimizeLegibility" font-size="10" font-family="sans-serif" stroke="white">
			<rect x="58.7783" width="728.2217" height="294.5938" y="33.6406"  stroke="none"/>
			<line  fill="none" x1="58.7783" x2="787" y1="333.2344" y2="333.2344" stroke="gray"/>
			<text fill="black" x="91.6241"  y="347.288"  stroke="none">avr.-2001</text>
		</g>
		<g fill="gray" text-rendering="optimizeLegibility" font-size="10" font-family="sans-serif" stroke="gray">
			<line y2="333.2344" fill="none" x1="112.7472"  x2="112.7472" y1="335.2344"/>
			<text fill="black" x="154.141"  y="347.288"  stroke="none">juil.-2001</text>
		</g>
		<g fill="gray" text-rendering="optimizeLegibility" font-size="10" font-family="sans-serif" stroke="gray">
			<line y2="333.2344" fill="none" x1="174.431"  x2="174.431" y1="335.2344"/>
			<text fill="black" x="215.945"  y="347.288"  stroke="none">oct.-2001</text>
		</g>
		<g fill="gray" text-rendering="optimizeLegibility" font-size="10" font-family="sans-serif" stroke="gray">
			<line y2="333.2344" fill="none" x1="236.7927"  x2="236.7927" y1="335.2344"/>
			<text fill="black" x="275.833"  y="347.288"  stroke="none">janv.-2002</text>
		</g>
		<g fill="gray" text-rendering="optimizeLegibility" font-size="10" font-family="sans-serif" stroke="gray">
			<line y2="333.2344" fill="none" x1="299.1826"  x2="299.1826" y1="335.2344"/>
			<text fill="black" x="339.037"  y="347.288"  stroke="none">avr.-2002</text>
		</g>
		<g fill="gray" text-rendering="optimizeLegibility" font-size="10" font-family="sans-serif" stroke="gray">
			<line y2="333.2344" fill="none" x1="360.1603"  x2="360.1603" y1="335.2344"/>
			<text fill="black" x="401.554"  y="347.288"  stroke="none">juil.-2002</text>
		</g>
		<g fill="gray" text-rendering="optimizeLegibility" font-size="10" font-family="sans-serif" stroke="gray">
			<line y2="333.2344" fill="none" x1="421.8441"  x2="421.8441" y1="335.2344"/>
			<text fill="black" x="463.359"  y="347.288"  stroke="none">oct.-2002</text>
		</g>
		<g fill="gray" text-rendering="optimizeLegibility" font-size="10" font-family="sans-serif" stroke="gray">
			<line y2="333.2344" fill="none" x1="484.2058"  x2="484.2058" y1="335.2344"/>
			<text fill="black" x="523.246"  y="347.288"  stroke="none">janv.-2003</text>
		</g>
		<g fill="gray" text-rendering="optimizeLegibility" font-size="10" font-family="sans-serif" stroke="gray">
			<line y2="333.2344" fill="none" x1="546.5958"  x2="546.5958" y1="335.2344"/>
			<text fill="black" x="586.45"  y="347.288"  stroke="none">avr.-2003</text>
		</g>
		<g fill="gray" text-rendering="optimizeLegibility" font-size="10" font-family="sans-serif" stroke="gray">
			<line y2="333.2344" fill="none" x1="607.5735"  x2="607.5735" y1="335.2344"/>
			<text fill="black" x="648.967"  y="347.288"  stroke="none">juil.-2003</text>
		</g>
		<g fill="gray" text-rendering="optimizeLegibility" font-size="10" font-family="sans-serif" stroke="gray">
			<line y2="333.2344" fill="none" x1="669.2573"  x2="669.2573" y1="335.2344"/>
			<text fill="black" x="710.772"  y="347.288"  stroke="none">oct.-2003</text>
		</g>
		<g fill="gray" text-rendering="optimizeLegibility" font-size="10" font-family="sans-serif" stroke="gray">
			<line y2="333.2344" fill="none" x1="731.619"  x2="731.619" y1="335.2344"/>
			<text font-size="12" x="390.548" y="364.877"  fill="black" stroke="none" >Time of Day</text>
		</g>
		<g fill="gray" text-rendering="optimizeLegibility" font-family="sans-serif" stroke="gray">
			<line y2="328.2344" fill="none" x1="53.7783"  x2="53.7783" y1="33.6406"/>
			<text font-size="10" x="31.0938" y="323.611"  fill="black" stroke="none" >100</text>
		</g>
		<g fill="gray" text-rendering="optimizeLegibility" font-size="10" font-family="sans-serif" stroke="gray">
			<line y2="319.8465" fill="none" x1="51.7783"  x2="53.7783" y1="319.8465"/>
			<text fill="black" x="31.0938"  y="306.935"  stroke="none">105</text>
		</g>
		<g fill="gray" text-rendering="optimizeLegibility" font-size="10" font-family="sans-serif" stroke="gray">
			<line y2="303.1707" fill="none" x1="51.7783"  x2="53.7783" y1="303.1707"/>
			<text fill="black" x="31.0938"  y="290.26"  stroke="none">110</text>
		</g>
		<g fill="gray" text-rendering="optimizeLegibility" font-size="10" font-family="sans-serif" stroke="gray">
			<line y2="286.495" fill="none" x1="51.7783"  x2="53.7783" y1="286.495"/>
			<text fill="black" x="31.0938"  y="273.584"  stroke="none">115</text>
		</g>
		<g fill="gray" text-rendering="optimizeLegibility" font-size="10" font-family="sans-serif" stroke="gray">
			<line y2="269.8192" fill="none" x1="51.7783"  x2="53.7783" y1="269.8192"/>
			<text fill="black" x="31.0938"  y="256.908"  stroke="none">120</text>
		</g>
		<g fill="gray" text-rendering="optimizeLegibility" font-size="10" font-family="sans-serif" stroke="gray">
			<line y2="253.1435" fill="none" x1="51.7783"  x2="53.7783" y1="253.1435"/>
			<text fill="black" x="31.0938"  y="240.232"  stroke="none">125</text>
		</g>
		<g fill="gray" text-rendering="optimizeLegibility" font-size="10" font-family="sans-serif" stroke="gray">
			<line y2="236.4677" fill="none" x1="51.7783"  x2="53.7783" y1="236.4677"/>
			<text fill="black" x="31.0938"  y="223.557"  stroke="none">130</text>
		</g>
		<g fill="gray" text-rendering="optimizeLegibility" font-size="10" font-family="sans-serif" stroke="gray">
			<line y2="219.792" fill="none" x1="51.7783"  x2="53.7783" y1="219.792"/>
			<text fill="black" x="31.0938"  y="206.881"  stroke="none">135</text>
		</g>
		<g fill="gray" text-rendering="optimizeLegibility" font-size="10" font-family="sans-serif" stroke="gray">
			<line y2="203.1162" fill="none" x1="51.7783"  x2="53.7783" y1="203.1162"/>
			<text fill="black" x="31.0938"  y="190.205"  stroke="none">140</text>
		</g>
		<g fill="gray" text-rendering="optimizeLegibility" font-size="10" font-family="sans-serif" stroke="gray">
			<line y2="186.4405" fill="none" x1="51.7783"  x2="53.7783" y1="186.4405"/>
			<text fill="black" x="31.0938"  y="173.529"  stroke="none">145</text>
		</g>
		<g fill="gray" text-rendering="optimizeLegibility" font-size="10" font-family="sans-serif" stroke="gray">
			<line y2="169.7648" fill="none" x1="51.7783"  x2="53.7783" y1="169.7648"/>
			<text fill="black" x="31.0938"  y="156.854"  stroke="none">150</text>
		</g>
		<g fill="gray" text-rendering="optimizeLegibility" font-size="10" font-family="sans-serif" stroke="gray">
			<line y2="153.089" fill="none" x1="51.7783"  x2="53.7783" y1="153.089"/>
			<text fill="black" x="31.0938"  y="140.178"  stroke="none">155</text>
		</g>
		<g fill="gray" text-rendering="optimizeLegibility" font-size="10" font-family="sans-serif" stroke="gray">
			<line y2="136.4133" fill="none" x1="51.7783"  x2="53.7783" y1="136.4133"/>
			<text fill="black" x="31.0938"  y="123.502"  stroke="none">160</text>
		</g>
		<g fill="gray" text-rendering="optimizeLegibility" font-size="10" font-family="sans-serif" stroke="gray">
			<line y2="119.7375" fill="none" x1="51.7783"  x2="53.7783" y1="119.7375"/>
			<text fill="black" x="31.0938"  y="106.826"  stroke="none">165</text>
		</g>
		<g fill="gray" text-rendering="optimizeLegibility" font-size="10" font-family="sans-serif" stroke="gray">
			<line y2="103.0618" fill="none" x1="51.7783"  x2="53.7783" y1="103.0618"/>
			<text fill="black" x="31.0938"  y="90.1507"  stroke="none">170</text>
		</g>
		<g fill="gray" text-rendering="optimizeLegibility" font-size="10" font-family="sans-serif" stroke="gray">
			<line y2="86.386" fill="none" x1="51.7783"  x2="53.7783" y1="86.386"/>
			<text fill="black" x="31.0938"  y="73.4749"  stroke="none">175</text>
		</g>
		<g fill="gray" text-rendering="optimizeLegibility" font-size="10" font-family="sans-serif" stroke="gray">
			<line y2="69.7103" fill="none" x1="51.7783"  x2="53.7783" y1="69.7103"/>
			<text fill="black" x="31.0938"  y="56.7992"  stroke="none">180</text>
		</g>
		<g fill="gray" text-rendering="optimizeLegibility" font-size="10" font-family="sans-serif" stroke="gray">
			<line y2="53.0345" fill="none" x1="51.7783"  x2="53.7783" y1="53.0345"/>
			<text fill="black" x="31.0938"  y="40.1234"  stroke="none">185</text>
		</g>
		<g fill="gray" text-rendering="optimizeLegibility" font-size="10" font-family="sans-serif" stroke="gray">
			<line y2="36.3588" fill="none" x1="51.7783"  x2="53.7783" y1="36.3588"/>
			<text font-size="12" x="-17.1396" y="185.455" transform="matrix(0, -1, 1, 0, -162.391, 199.484)"  fill="black" stroke="none" >Range Axis 1</text>
		</g>
		<g stroke-linecap="butt" fill="yellow" text-rendering="optimizeLegibility" font-family="sans-serif" stroke-linejoin="bevel" stroke-dasharray="2,2" stroke="yellow" stroke-width="0.5" stroke-miterlimit="0">
			<line y2="328.2344" fill="none" x1="112.7472"  x2="112.7472" y1="33.6406"/>
			<line y2="328.2344" fill="none" x1="174.431"  x2="174.431" y1="33.6406"/>
			<line y2="328.2344" fill="none" x1="236.7927"  x2="236.7927" y1="33.6406"/>
			<line y2="328.2344" fill="none" x1="299.1826"  x2="299.1826" y1="33.6406"/>
			<line y2="328.2344" fill="none" x1="360.1603"  x2="360.1603" y1="33.6406"/>
			<line y2="328.2344" fill="none" x1="421.8442"  x2="421.8442" y1="33.6406"/>
			<line y2="328.2344" fill="none" x1="484.2058"  x2="484.2058" y1="33.6406"/>
			<line y2="328.2344" fill="none" x1="546.5957"  x2="546.5957" y1="33.6406"/>
			<line y2="328.2344" fill="none" x1="607.5735"  x2="607.5735" y1="33.6406"/>
			<line y2="328.2344" fill="none" x1="669.2573"  x2="669.2573" y1="33.6406"/>
			<line y2="328.2344" fill="none" x1="731.619"  x2="731.619" y1="33.6406"/>
			<line y2="319.8465" fill="none" x1="58.7783"  x2="787" y1="319.8465"/>
			<line y2="303.1707" fill="none" x1="58.7783"  x2="787" y1="303.1707"/>
			<line y2="286.495" fill="none" x1="58.7783"  x2="787" y1="286.495"/>
			<line y2="269.8192" fill="none" x1="58.7783"  x2="787" y1="269.8192"/>
			<line y2="253.1435" fill="none" x1="58.7783"  x2="787" y1="253.1435"/>
			<line y2="236.4677" fill="none" x1="58.7783"  x2="787" y1="236.4677"/>
			<line y2="219.792" fill="none" x1="58.7783"  x2="787" y1="219.792"/>
			<line y2="203.1162" fill="none" x1="58.7783"  x2="787" y1="203.1162"/>
			<line y2="186.4405" fill="none" x1="58.7783"  x2="787" y1="186.4405"/>
			<line y2="169.7647" fill="none" x1="58.7783"  x2="787" y1="169.7647"/>
			<line y2="153.089" fill="none" x1="58.7783"  x2="787" y1="153.089"/>
			<line y2="136.4133" fill="none" x1="58.7783"  x2="787" y1="136.4133"/>
			<line y2="119.7375" fill="none" x1="58.7783"  x2="787" y1="119.7375"/>
			<line y2="103.0618" fill="none" x1="58.7783"  x2="787" y1="103.0618"/>
			<line y2="86.386" fill="none" x1="58.7783"  x2="787" y1="86.386"/>
			<line y2="69.7103" fill="none" x1="58.7783"  x2="787" y1="69.7103"/>
			<line y2="53.0345" fill="none" x1="58.7783"  x2="787" y1="53.0345"/>
			<line y2="36.3588" fill="none" x1="58.7783"  x2="787" y1="36.3588"/>
		</g>
		<g fill="lime" text-rendering="optimizeLegibility" font-family="sans-serif" stroke-linejoin="bevel" stroke="lime">
			<line  fill="none" x1="299.1826" x2="320.1957" y1="176.7686" xValue="9.834012E11" y2="190.7762" yValue="167.3" serie="LG European Index Trust"/>
			<line  fill="none" x1="320.1957" x2="339.1754" y1="190.7762" xValue="9.86076E11" y2="195.4454" yValue="153.8" serie="LG European Index Trust"/>
			<line  fill="none" x1="339.1754" x2="360.1603" y1="195.4454" xValue="9.88668E11" y2="173.4334" yValue="167.6" serie="LG European Index Trust"/>
			<line  fill="none" x1="360.1603" x2="380.4956" y1="173.4334" xValue="9.913464E11" y2="187.1075" yValue="158.8" serie="LG European Index Trust"/>
			<line  fill="none" x1="380.4956" x2="401.5088" y1="187.1075" xValue="9.939384E11" y2="196.4459" yValue="148.3" serie="LG European Index Trust"/>
			<line  fill="none" x1="401.5088" x2="421.8442" y1="196.4459" xValue="9.966168E11" y2="210.4536" yValue="153.9" serie="LG European Index Trust"/>
			<line  fill="none" x1="299.1826" x2="320.1957" y1="176.7686" xValue="9.834012E11" y2="190.7762" yValue="167.3" stroke="blue" serie="LG European Index Trust"/>
			<line  fill="none" x1="320.1957" x2="339.1754" y1="190.7762" xValue="9.86076E11" y2="195.4454" yValue="153.8" stroke="blue" serie="LG European Index Trust"/>
			<line  fill="none" x1="339.1754" x2="360.1603" y1="195.4454" xValue="9.88668E11" y2="173.4334" yValue="167.6" stroke="blue" serie="LG European Index Trust"/>
			<line  fill="none" x1="360.1603" x2="380.4956" y1="173.4334" xValue="9.913464E11" y2="187.1075" yValue="158.8" stroke="blue" serie="LG European Index Trust"/>
			<line  fill="none" x1="380.4956" x2="401.5088" y1="187.1075" xValue="9.939384E11" y2="196.4459" yValue="148.3" stroke="blue" serie="LG European Index Trust"/>
			<line  fill="none" x1="401.5088" x2="421.8442" y1="196.4459" xValue="9.966168E11" y2="210.4536" yValue="153.9" stroke="blue" serie="LG European Index Trust"/>
			<line  fill="none" x1="421.8442" x2="567.6089" y1="210.4536" xValue="9.992952E11" y2="47.0312" yValue="142.7" stroke="blue" serie="LG European Index Trust"/>
			<line  fill="none" x1="567.6089" x2="586.5886" y1="47.0312" xValue="1.0018872E12" y2="95.3909" yValue="123.2" stroke="blue" serie="LG European Index Trust"/>
			<line  fill="none" x1="586.5886" x2="607.5735" y1="95.3909" xValue="1.0045692E12" y2="140.4154" yValue="131.8" stroke="blue" serie="LG European Index Trust"/>
			<line  fill="none" x1="607.5735" x2="627.9088" y1="140.4154" xValue="1.0071612E12" y2="94.3904" yValue="139.6" stroke="blue" serie="LG European Index Trust"/>
			<line  fill="none" x1="627.9088" x2="648.922" y1="94.3904" xValue="1.0098396E12" y2="123.7397" yValue="142.9" stroke="blue" serie="LG European Index Trust"/>
			<line  fill="none" x1="648.922" x2="669.2573" y1="123.7397" xValue="1.012518E12" y2="158.7588" yValue="138.7" stroke="blue" serie="LG European Index Trust"/>
			<line  fill="none" x1="669.2573" x2="690.2705" y1="158.7588" xValue="1.0149372E12" y2="140.0819" yValue="137.3" stroke="blue" serie="LG European Index Trust"/>
			<line  fill="none" x1="690.2705" x2="711.2837" y1="140.0819" xValue="1.017612E12" y2="177.4356" yValue="143.9" stroke="blue" serie="LG European Index Trust"/>
			<line  fill="none" x1="711.2837" x2="731.619" y1="177.4356" xValue="1.020204E12" y2="242.471" yValue="139.8" stroke="blue" serie="LG European Index Trust"/>
			<line  fill="none" x1="731.619" x2="752.6604" y1="242.471" xValue="1.0228824E12" y2="213.7887" yValue="137.0" stroke="blue" serie="LG European Index Trust"/>
			<line  fill="none" x1="752.6604" x2="772.9957" y1="213.7887" xValue="1.0254744E12" y2="187.7746" yValue="132.8" stroke="blue" serie="LG European Index Trust"/>
			<line  fill="none" x1="72.7826" x2="91.7622" y1="221.1261" xValue="9.834012E11" y2="242.471" yValue="167.3" stroke="red" serie="LG European Index Trust"/>
			<line  fill="none" x1="91.7622" x2="112.7472" y1="242.471" xValue="9.86076E11" y2="262.4819" yValue="153.8" stroke="red" serie="LG European Index Trust"/>
			<line  fill="none" x1="112.7472" x2="133.0825" y1="262.4819" xValue="9.88668E11" y2="239.4694" yValue="167.6" stroke="red" serie="LG European Index Trust"/>
			<line  fill="none" x1="133.0825" x2="154.0957" y1="239.4694" xValue="9.913464E11" y2="244.4721" yValue="158.8" stroke="red" serie="LG European Index Trust"/>
			<line  fill="none" x1="154.0957" x2="174.431" y1="244.4721" xValue="9.939384E11" y2="255.8116" yValue="148.3" stroke="red" serie="LG European Index Trust"/>
			<line  fill="none" x1="174.431" x2="195.4442" y1="255.8116" xValue="9.966168E11" y2="264.8165" yValue="153.9" stroke="red" serie="LG European Index Trust"/>
			<line  fill="none" x1="195.4442" x2="216.4573" y1="264.8165" xValue="9.992952E11" y2="277.4901" yValue="142.7" stroke="red" serie="LG European Index Trust"/>
			<line  fill="none" x1="216.4573" x2="236.7927" y1="277.4901" xValue="1.0018872E12" y2="314.8438" yValue="123.2" stroke="red" serie="LG European Index Trust"/>
			<line  fill="none" x1="236.7927" x2="257.8341" y1="314.8438" xValue="1.0045692E12" y2="299.5021" yValue="131.8" stroke="red" serie="LG European Index Trust"/>
			<line  fill="none" x1="257.8341" x2="278.1694" y1="299.5021" xValue="1.0071612E12" y2="285.4944" yValue="139.6" stroke="red" serie="LG European Index Trust"/>
			<line  fill="none" x1="278.1694" x2="299.1826" y1="285.4944" xValue="1.0098396E12" y2="280.8252" yValue="142.9" stroke="red" serie="LG European Index Trust"/>
			<line  fill="none" x1="299.1826" x2="320.1957" y1="280.8252" xValue="1.012518E12" y2="283.1598" yValue="138.7" stroke="red" serie="LG European Index Trust"/>
			<line  fill="none" x1="320.1957" x2="339.1754" y1="283.1598" xValue="1.0149372E12" y2="287.829" yValue="137.3" stroke="red" serie="LG European Index Trust"/>
			<line  fill="none" x1="339.1754" x2="360.1603" y1="287.829" xValue="1.017612E12" y2="275.8225" yValue="143.9" stroke="red" serie="LG European Index Trust"/>
			<line  fill="none" x1="360.1603" x2="380.4956" y1="275.8225" xValue="1.020204E12" y2="281.1587" yValue="139.8" stroke="red" serie="LG European Index Trust"/>
			<line  fill="none" x1="380.4956" x2="401.5088" y1="281.1587" xValue="1.0228824E12" y2="290.4972" yValue="137.0" stroke="red" serie="LG European Index Trust"/>
			<line  fill="none" x1="401.5088" x2="421.8442" y1="290.4972" xValue="1.0254744E12" y2="314.5102" yValue="132.8" stroke="red" serie="LG European Index Trust"/>
			<line  fill="none" x1="72.7826" x2="91.7622" y1="47.0312" xValue="9.834012E11" y2="95.3909" yValue="167.3" stroke="black" serie="LG European Index Trust"/>
			<line  fill="none" x1="91.7622" x2="112.7472" y1="95.3909" xValue="9.86076E11" y2="140.4154" yValue="153.8" stroke="black" serie="LG European Index Trust"/>
			<line  fill="none" x1="112.7472" x2="133.0825" y1="140.4154" xValue="9.88668E11" y2="94.3904" yValue="167.6" stroke="black" serie="LG European Index Trust"/>
			<line  fill="none" x1="133.0825" x2="154.0957" y1="94.3904" xValue="9.913464E11" y2="123.7397" yValue="158.8" stroke="black" serie="LG European Index Trust"/>
			<line  fill="none" x1="154.0957" x2="174.431" y1="123.7397" xValue="9.939384E11" y2="158.7588" yValue="148.3" stroke="black" serie="LG European Index Trust"/>
			<line  fill="none" x1="174.431" x2="195.4442" y1="158.7588" xValue="9.966168E11" y2="140.0819" yValue="153.9" stroke="black" serie="LG European Index Trust"/>
			<line  fill="none" x1="195.4442" x2="216.4573" y1="140.0819" xValue="9.992952E11" y2="177.4356" yValue="142.7" stroke="black" serie="LG European Index Trust"/>
			<line  fill="none" x1="216.4573" x2="236.7927" y1="177.4356" xValue="1.0018872E12" y2="242.471" yValue="123.2" stroke="black" serie="LG European Index Trust"/>
			<line  fill="none" x1="236.7927" x2="257.8341" y1="242.471" xValue="1.0045692E12" y2="213.7887" yValue="131.8" stroke="black" serie="LG European Index Trust"/>
			<line  fill="none" x1="257.8341" x2="278.1694" y1="213.7887" xValue="1.0071612E12" y2="187.7746" yValue="139.6" stroke="black" serie="LG European Index Trust"/>
			<line  fill="none" x1="278.1694" x2="299.1826" y1="187.7746" xValue="1.0098396E12" y2="176.7686" yValue="142.9" stroke="black" serie="LG European Index Trust"/>
			<line  fill="none" x1="299.1826" x2="320.1957" y1="176.7686" xValue="1.012518E12" y2="190.7762" yValue="138.7" stroke="black" serie="LG European Index Trust"/>
			<line  fill="none" x1="320.1957" x2="339.1754" y1="190.7762" xValue="1.0149372E12" y2="195.4454" yValue="137.3" stroke="black" serie="LG European Index Trust"/>
			<line  fill="none" x1="339.1754" x2="360.1603" y1="195.4454" xValue="1.017612E12" y2="173.4334" yValue="143.9" stroke="black" serie="LG European Index Trust"/>
			<line  fill="none" x1="360.1603" x2="380.4956" y1="173.4334" xValue="1.020204E12" y2="187.1075" yValue="139.8" stroke="black" serie="LG European Index Trust"/>
			<line  fill="none" x1="380.4956" x2="401.5088" y1="187.1075" xValue="1.0228824E12" y2="196.4459" yValue="137.0" stroke="black" serie="LG European Index Trust"/>
			<line  fill="none" x1="401.5088" x2="421.8442" y1="196.4459" xValue="1.0254744E12" y2="210.4536" yValue="132.8" stroke="black" serie="LG European Index Trust"/>
			<path  fill="none" fill-rule="evenodd" stroke-linejoin="miter" xValue="9.80982E11" yValue="181.8" d="M299.1826 173.7686 L302.1826 179.7686 L296.1826 179.7686 Z" serie="LG European Index Trust"/>
			<path  fill="none" fill-rule="evenodd" stroke-linejoin="miter" xValue="9.834012E11" yValue="167.3" d="M320.1957 187.7762 L323.1957 193.7762 L317.1957 193.7762 Z" serie="LG European Index Trust"/>
			<path  fill="none" fill-rule="evenodd" stroke-linejoin="miter" xValue="9.86076E11" yValue="153.8" d="M339.1754 192.4454 L342.1754 198.4454 L336.1754 198.4454 Z" serie="LG European Index Trust"/>
			<path  fill="none" fill-rule="evenodd" stroke-linejoin="miter" xValue="9.88668E11" yValue="167.6" d="M360.1603 170.4334 L363.1603 176.4334 L357.1603 176.4334 Z" serie="LG European Index Trust"/>
			<path  fill="none" fill-rule="evenodd" stroke-linejoin="miter" xValue="9.913464E11" yValue="158.8" d="M380.4956 184.1075 L383.4956 190.1075 L377.4956 190.1075 Z" serie="LG European Index Trust"/>
			<path  fill="none" fill-rule="evenodd" stroke-linejoin="miter" xValue="9.939384E11" yValue="148.3" d="M401.5088 193.4459 L404.5088 199.4459 L398.5088 199.4459 Z" serie="LG European Index Trust"/>
			<path  fill="none" fill-rule="evenodd" stroke-linejoin="miter" xValue="9.966168E11" yValue="153.9" d="M421.8441 207.4536 L424.8441 213.4536 L418.8441 213.4536 Z" serie="LG European Index Trust"/>
			<path  fill="none" stroke-linejoin="miter" xValue="9.80982E11" yValue="181.8" d="M302.1826 176.7686 C302.1826 178.4254 300.8394 179.7686 299.1826 179.7686 C297.5257 179.7686 296.1826 178.4254 296.1826 176.7686 C296.1826 175.1117 297.5257 173.7686 299.1826 173.7686 C300.8394 173.7686 302.1826 175.1117 302.1826 176.7686 Z" serie="LG European Index Trust" stroke="blue"/>
			<path  fill="none" stroke-linejoin="miter" xValue="9.834012E11" yValue="167.3" d="M323.1957 190.7762 C323.1957 192.433 321.8526 193.7762 320.1957 193.7762 C318.5389 193.7762 317.1957 192.433 317.1957 190.7762 C317.1957 189.1193 318.5389 187.7762 320.1957 187.7762 C321.8526 187.7762 323.1957 189.1193 323.1957 190.7762 Z" serie="LG European Index Trust" stroke="blue"/>
			<path  fill="none" stroke-linejoin="miter" xValue="9.86076E11" yValue="153.8" d="M342.1754 195.4454 C342.1754 197.1022 340.8322 198.4454 339.1754 198.4454 C337.5185 198.4454 336.1754 197.1022 336.1754 195.4454 C336.1754 193.7885 337.5185 192.4454 339.1754 192.4454 C340.8322 192.4454 342.1754 193.7885 342.1754 195.4454 Z" serie="LG European Index Trust" stroke="blue"/>
			<path  fill="none" stroke-linejoin="miter" xValue="9.88668E11" yValue="167.6" d="M363.1603 173.4334 C363.1603 175.0903 361.8172 176.4334 360.1603 176.4334 C358.5035 176.4334 357.1603 175.0903 357.1603 173.4334 C357.1603 171.7766 358.5035 170.4334 360.1603 170.4334 C361.8172 170.4334 363.1603 171.7766 363.1603 173.4334 Z" serie="LG European Index Trust" stroke="blue"/>
			<path  fill="none" stroke-linejoin="miter" xValue="9.913464E11" yValue="158.8" d="M383.4956 187.1075 C383.4956 188.7644 382.1525 190.1075 380.4956 190.1075 C378.8388 190.1075 377.4956 188.7644 377.4956 187.1075 C377.4956 185.4507 378.8388 184.1075 380.4956 184.1075 C382.1525 184.1075 383.4956 185.4507 383.4956 187.1075 Z" serie="LG European Index Trust" stroke="blue"/>
			<path  fill="none" stroke-linejoin="miter" xValue="9.939384E11" yValue="148.3" d="M404.5088 196.4459 C404.5088 198.1028 403.1657 199.4459 401.5088 199.4459 C399.852 199.4459 398.5088 198.1028 398.5088 196.4459 C398.5088 194.7891 399.852 193.4459 401.5088 193.4459 C403.1657 193.4459 404.5088 194.7891 404.5088 196.4459 Z" serie="LG European Index Trust" stroke="blue"/>
			<path  fill="none" stroke-linejoin="miter" xValue="9.966168E11" yValue="153.9" d="M424.8441 210.4536 C424.8441 212.1104 423.501 213.4536 421.8441 213.4536 C420.1873 213.4536 418.8441 212.1104 418.8441 210.4536 C418.8441 208.7967 420.1873 207.4536 421.8441 207.4536 C423.501 207.4536 424.8441 208.7967 424.8441 210.4536 Z" serie="LG European Index Trust" stroke="blue"/>
			<path  fill="none" stroke-linejoin="miter" xValue="9.992952E11" yValue="142.7" d="M570.6089 47.0312 C570.6089 48.6881 569.2657 50.0312 567.6089 50.0312 C565.9521 50.0312 564.6089 48.6881 564.6089 47.0312 C564.6089 45.3744 565.9521 44.0312 567.6089 44.0312 C569.2657 44.0312 570.6089 45.3744 570.6089 47.0312 Z" serie="LG European Index Trust" stroke="blue"/>
			<path  fill="none" stroke-linejoin="miter" xValue="1.0018872E12" yValue="123.2" d="M589.5886 95.3909 C589.5886 97.0478 588.2454 98.3909 586.5886 98.3909 C584.9317 98.3909 583.5886 97.0478 583.5886 95.3909 C583.5886 93.7341 584.9317 92.3909 586.5886 92.3909 C588.2454 92.3909 589.5886 93.7341 589.5886 95.3909 Z" serie="LG European Index Trust" stroke="blue"/>
			<path  fill="none" stroke-linejoin="miter" xValue="1.0045692E12" yValue="131.8" d="M610.5735 140.4154 C610.5735 142.0723 609.2303 143.4154 607.5735 143.4154 C605.9166 143.4154 604.5735 142.0723 604.5735 140.4154 C604.5735 138.7586 605.9166 137.4154 607.5735 137.4154 C609.2303 137.4154 610.5735 138.7586 610.5735 140.4154 Z" serie="LG European Index Trust" stroke="blue"/>
			<path  fill="none" stroke-linejoin="miter" xValue="1.0071612E12" yValue="139.6" d="M630.9088 94.3904 C630.9088 96.0472 629.5657 97.3904 627.9088 97.3904 C626.252 97.3904 624.9088 96.0472 624.9088 94.3904 C624.9088 92.7335 626.252 91.3904 627.9088 91.3904 C629.5657 91.3904 630.9088 92.7335 630.9088 94.3904 Z" serie="LG European Index Trust" stroke="blue"/>
			<path  fill="none" stroke-linejoin="miter" xValue="1.0098396E12" yValue="142.9" d="M651.922 123.7397 C651.922 125.3965 650.5789 126.7397 648.922 126.7397 C647.2651 126.7397 645.922 125.3965 645.922 123.7397 C645.922 122.0828 647.2651 120.7397 648.922 120.7397 C650.5789 120.7397 651.922 122.0828 651.922 123.7397 Z" serie="LG European Index Trust" stroke="blue"/>
			<path  fill="none" stroke-linejoin="miter" xValue="1.012518E12" yValue="138.7" d="M672.2573 158.7588 C672.2573 160.4156 670.9142 161.7588 669.2573 161.7588 C667.6005 161.7588 666.2573 160.4156 666.2573 158.7588 C666.2573 157.1019 667.6005 155.7588 669.2573 155.7588 C670.9142 155.7588 672.2573 157.1019 672.2573 158.7588 Z" serie="LG European Index Trust" stroke="blue"/>
			<path  fill="none" stroke-linejoin="miter" xValue="1.0149372E12" yValue="137.3" d="M693.2705 140.0819 C693.2705 141.7388 691.9274 143.0819 690.2705 143.0819 C688.6136 143.0819 687.2705 141.7388 687.2705 140.0819 C687.2705 138.4251 688.6136 137.0819 690.2705 137.0819 C691.9274 137.0819 693.2705 138.4251 693.2705 140.0819 Z" serie="LG European Index Trust" stroke="blue"/>
			<path  fill="none" stroke-linejoin="miter" xValue="1.017612E12" yValue="143.9" d="M714.2837 177.4356 C714.2837 179.0925 712.9405 180.4356 711.2837 180.4356 C709.6268 180.4356 708.2837 179.0925 708.2837 177.4356 C708.2837 175.7787 709.6268 174.4356 711.2837 174.4356 C712.9405 174.4356 714.2837 175.7787 714.2837 177.4356 Z" serie="LG European Index Trust" stroke="blue"/>
			<path  fill="none" stroke-linejoin="miter" xValue="1.020204E12" yValue="139.8" d="M734.619 242.471 C734.619 244.1279 733.2758 245.471 731.619 245.471 C729.9622 245.471 728.619 244.1279 728.619 242.471 C728.619 240.8141 729.9622 239.471 731.619 239.471 C733.2758 239.471 734.619 240.8141 734.619 242.471 Z" serie="LG European Index Trust" stroke="blue"/>
			<path  fill="none" stroke-linejoin="miter" xValue="1.0228824E12" yValue="137.0" d="M755.6604 213.7887 C755.6604 215.4456 754.3173 216.7887 752.6604 216.7887 C751.0035 216.7887 749.6604 215.4456 749.6604 213.7887 C749.6604 212.1319 751.0035 210.7887 752.6604 210.7887 C754.3173 210.7887 755.6604 212.1319 755.6604 213.7887 Z" serie="LG European Index Trust" stroke="blue"/>
			<path  fill="none" stroke-linejoin="miter" xValue="1.0254744E12" yValue="132.8" d="M775.9957 187.7746 C775.9957 189.4314 774.6526 190.7746 772.9957 190.7746 C771.3389 190.7746 769.9957 189.4314 769.9957 187.7746 C769.9957 186.1177 771.3389 184.7746 772.9957 184.7746 C774.6526 184.7746 775.9957 186.1177 775.9957 187.7746 Z" serie="LG European Index Trust" stroke="blue"/>
			<path  fill="none" stroke-linejoin="miter" xValue="9.80982E11" yValue="181.8" d="M69.7826 218.1261 L75.7826 218.1261 L75.7826 224.1261 L69.7826 224.1261 L69.7826 218.1261 Z" serie="LG European Index Trust" stroke="red"/>
			<path  fill="none" stroke-linejoin="miter" xValue="9.834012E11" yValue="167.3" d="M88.7622 239.471 L94.7622 239.471 L94.7622 245.471 L88.7622 245.471 L88.7622 239.471 Z" serie="LG European Index Trust" stroke="red"/>
			<path  fill="none" stroke-linejoin="miter" xValue="9.86076E11" yValue="153.8" d="M109.7472 259.4819 L115.7472 259.4819 L115.7472 265.4819 L109.7472 265.4819 L109.7472 259.4819 Z" serie="LG European Index Trust" stroke="red"/>
			<path  fill="none" stroke-linejoin="miter" xValue="9.88668E11" yValue="167.6" d="M130.0825 236.4694 L136.0825 236.4694 L136.0825 242.4694 L130.0825 242.4694 L130.0825 236.4694 Z" serie="LG European Index Trust" stroke="red"/>
			<path  fill="none" stroke-linejoin="miter" xValue="9.913464E11" yValue="158.8" d="M151.0957 241.4721 L157.0957 241.4721 L157.0957 247.4721 L151.0957 247.4721 L151.0957 241.4721 Z" serie="LG European Index Trust" stroke="red"/>
			<path  fill="none" stroke-linejoin="miter" xValue="9.939384E11" yValue="148.3" d="M171.431 252.8116 L177.431 252.8116 L177.431 258.8116 L171.431 258.8116 L171.431 252.8116 Z" serie="LG European Index Trust" stroke="red"/>
			<path  fill="none" stroke-linejoin="miter" xValue="9.966168E11" yValue="153.9" d="M192.4442 261.8165 L198.4442 261.8165 L198.4442 267.8165 L192.4442 267.8165 L192.4442 261.8165 Z" serie="LG European Index Trust" stroke="red"/>
			<path  fill="none" stroke-linejoin="miter" xValue="9.992952E11" yValue="142.7" d="M213.4573 274.4901 L219.4573 274.4901 L219.4573 280.4901 L213.4573 280.4901 L213.4573 274.4901 Z" serie="LG European Index Trust" stroke="red"/>
			<path  fill="none" stroke-linejoin="miter" xValue="1.0018872E12" yValue="123.2" d="M233.7927 311.8438 L239.7927 311.8438 L239.7927 317.8438 L233.7927 317.8438 L233.7927 311.8438 Z" serie="LG European Index Trust" stroke="red"/>
			<path  fill="none" stroke-linejoin="miter" xValue="1.0045692E12" yValue="131.8" d="M254.8341 296.5021 L260.8341 296.5021 L260.8341 302.5021 L254.8341 302.5021 L254.8341 296.5021 Z" serie="LG European Index Trust" stroke="red"/>
			<path  fill="none" stroke-linejoin="miter" xValue="1.0071612E12" yValue="139.6" d="M275.1694 282.4944 L281.1694 282.4944 L281.1694 288.4944 L275.1694 288.4944 L275.1694 282.4944 Z" serie="LG European Index Trust" stroke="red"/>
			<path  fill="none" stroke-linejoin="miter" xValue="1.0098396E12" yValue="142.9" d="M296.1826 277.8252 L302.1826 277.8252 L302.1826 283.8252 L296.1826 283.8252 L296.1826 277.8252 Z" serie="LG European Index Trust" stroke="red"/>
			<path  fill="none" stroke-linejoin="miter" xValue="1.012518E12" yValue="138.7" d="M317.1957 280.1598 L323.1957 280.1598 L323.1957 286.1598 L317.1957 286.1598 L317.1957 280.1598 Z" serie="LG European Index Trust" stroke="red"/>
			<path  fill="none" stroke-linejoin="miter" xValue="1.0149372E12" yValue="137.3" d="M336.1754 284.829 L342.1754 284.829 L342.1754 290.829 L336.1754 290.829 L336.1754 284.829 Z" serie="LG European Index Trust" stroke="red"/>
			<path  fill="none" stroke-linejoin="miter" xValue="1.017612E12" yValue="143.9" d="M357.1603 272.8225 L363.1603 272.8225 L363.1603 278.8225 L357.1603 278.8225 L357.1603 272.8225 Z" serie="LG European Index Trust" stroke="red"/>
			<path  fill="none" stroke-linejoin="miter" xValue="1.020204E12" yValue="139.8" d="M377.4956 278.1588 L383.4956 278.1588 L383.4956 284.1588 L377.4956 284.1588 L377.4956 278.1588 Z" serie="LG European Index Trust" stroke="red"/>
			<path  fill="none" stroke-linejoin="miter" xValue="1.0228824E12" yValue="137.0" d="M398.5088 287.4972 L404.5088 287.4972 L404.5088 293.4972 L398.5088 293.4972 L398.5088 287.4972 Z" serie="LG European Index Trust" stroke="red"/>
			<path  fill="none" stroke-linejoin="miter" xValue="1.0254744E12" yValue="132.8" d="M418.8441 311.5102 L424.8441 311.5102 L424.8441 317.5102 L418.8441 317.5102 L418.8441 311.5102 Z" serie="LG European Index Trust" stroke="red"/>
			<path  fill="none" stroke-linejoin="miter" xValue="9.80982E11" yValue="181.8" d="M75.7826 47.0312 C75.7826 48.6881 74.4394 50.0312 72.7826 50.0312 C71.1257 50.0312 69.7826 48.6881 69.7826 47.0312 C69.7826 45.3744 71.1257 44.0312 72.7826 44.0312 C74.4394 44.0312 75.7826 45.3744 75.7826 47.0312 Z" serie="LG European Index Trust" stroke="black"/>
			<path  fill="none" stroke-linejoin="miter" xValue="9.834012E11" yValue="167.3" d="M94.7622 95.3909 C94.7622 97.0478 93.4191 98.3909 91.7622 98.3909 C90.1054 98.3909 88.7622 97.0478 88.7622 95.3909 C88.7622 93.7341 90.1054 92.3909 91.7622 92.3909 C93.4191 92.3909 94.7622 93.7341 94.7622 95.3909 Z" serie="LG European Index Trust" stroke="black"/>
			<path  fill="none" stroke-linejoin="miter" xValue="9.86076E11" yValue="153.8" d="M115.7472 140.4154 C115.7472 142.0723 114.404 143.4154 112.7472 143.4154 C111.0903 143.4154 109.7472 142.0723 109.7472 140.4154 C109.7472 138.7586 111.0903 137.4154 112.7472 137.4154 C114.404 137.4154 115.7472 138.7586 115.7472 140.4154 Z" serie="LG European Index Trust" stroke="black"/>
			<path  fill="none" stroke-linejoin="miter" xValue="9.88668E11" yValue="167.6" d="M136.0825 94.3904 C136.0825 96.0472 134.7393 97.3904 133.0825 97.3904 C131.4256 97.3904 130.0825 96.0472 130.0825 94.3904 C130.0825 92.7335 131.4256 91.3904 133.0825 91.3904 C134.7393 91.3904 136.0825 92.7335 136.0825 94.3904 Z" serie="LG European Index Trust" stroke="black"/>
			<path  fill="none" stroke-linejoin="miter" xValue="9.913464E11" yValue="158.8" d="M157.0957 123.7397 C157.0957 125.3965 155.7525 126.7397 154.0957 126.7397 C152.4388 126.7397 151.0957 125.3965 151.0957 123.7397 C151.0957 122.0828 152.4388 120.7397 154.0957 120.7397 C155.7525 120.7397 157.0957 122.0828 157.0957 123.7397 Z" serie="LG European Index Trust" stroke="black"/>
			<path  fill="none" stroke-linejoin="miter" xValue="9.939384E11" yValue="148.3" d="M177.431 158.7588 C177.431 160.4156 176.0878 161.7588 174.431 161.7588 C172.7741 161.7588 171.431 160.4156 171.431 158.7588 C171.431 157.1019 172.7741 155.7588 174.431 155.7588 C176.0878 155.7588 177.431 157.1019 177.431 158.7588 Z" serie="LG European Index Trust" stroke="black"/>
			<path  fill="none" stroke-linejoin="miter" xValue="9.966168E11" yValue="153.9" d="M198.4442 140.0819 C198.4442 141.7388 197.101 143.0819 195.4442 143.0819 C193.7873 143.0819 192.4442 141.7388 192.4442 140.0819 C192.4442 138.4251 193.7873 137.0819 195.4442 137.0819 C197.101 137.0819 198.4442 138.4251 198.4442 140.0819 Z" serie="LG European Index Trust" stroke="black"/>
			<path  fill="none" stroke-linejoin="miter" xValue="9.992952E11" yValue="142.7" d="M219.4573 177.4356 C219.4573 179.0925 218.1142 180.4356 216.4573 180.4356 C214.8005 180.4356 213.4573 179.0925 213.4573 177.4356 C213.4573 175.7787 214.8005 174.4356 216.4573 174.4356 C218.1142 174.4356 219.4573 175.7787 219.4573 177.4356 Z" serie="LG European Index Trust" stroke="black"/>
			<path  fill="none" stroke-linejoin="miter" xValue="1.0018872E12" yValue="123.2" d="M239.7927 242.471 C239.7927 244.1279 238.4495 245.471 236.7927 245.471 C235.1358 245.471 233.7927 244.1279 233.7927 242.471 C233.7927 240.8141 235.1358 239.471 236.7927 239.471 C238.4495 239.471 239.7927 240.8141 239.7927 242.471 Z" serie="LG European Index Trust" stroke="black"/>
			<path  fill="none" stroke-linejoin="miter" xValue="1.0045692E12" yValue="131.8" d="M260.8341 213.7887 C260.8341 215.4456 259.4909 216.7887 257.8341 216.7887 C256.1772 216.7887 254.8341 215.4456 254.8341 213.7887 C254.8341 212.1319 256.1772 210.7887 257.8341 210.7887 C259.4909 210.7887 260.8341 212.1319 260.8341 213.7887 Z" serie="LG European Index Trust" stroke="black"/>
			<path  fill="none" stroke-linejoin="miter" xValue="1.0071612E12" yValue="139.6" d="M281.1694 187.7746 C281.1694 189.4314 279.8263 190.7746 278.1694 190.7746 C276.5125 190.7746 275.1694 189.4314 275.1694 187.7746 C275.1694 186.1177 276.5125 184.7746 278.1694 184.7746 C279.8263 184.7746 281.1694 186.1177 281.1694 187.7746 Z" serie="LG European Index Trust" stroke="black"/>
			<path  fill="none" stroke-linejoin="miter" xValue="1.0098396E12" yValue="142.9" d="M302.1826 176.7686 C302.1826 178.4254 300.8394 179.7686 299.1826 179.7686 C297.5257 179.7686 296.1826 178.4254 296.1826 176.7686 C296.1826 175.1117 297.5257 173.7686 299.1826 173.7686 C300.8394 173.7686 302.1826 175.1117 302.1826 176.7686 Z" serie="LG European Index Trust" stroke="black"/>
			<path  fill="none" stroke-linejoin="miter" xValue="1.012518E12" yValue="138.7" d="M323.1957 190.7762 C323.1957 192.433 321.8526 193.7762 320.1957 193.7762 C318.5389 193.7762 317.1957 192.433 317.1957 190.7762 C317.1957 189.1193 318.5389 187.7762 320.1957 187.7762 C321.8526 187.7762 323.1957 189.1193 323.1957 190.7762 Z" serie="LG European Index Trust" stroke="black"/>
			<path  fill="none" stroke-linejoin="miter" xValue="1.0149372E12" yValue="137.3" d="M342.1754 195.4454 C342.1754 197.1022 340.8322 198.4454 339.1754 198.4454 C337.5185 198.4454 336.1754 197.1022 336.1754 195.4454 C336.1754 193.7885 337.5185 192.4454 339.1754 192.4454 C340.8322 192.4454 342.1754 193.7885 342.1754 195.4454 Z" serie="LG European Index Trust" stroke="black"/>
			<path  fill="none" stroke-linejoin="miter" xValue="1.017612E12" yValue="143.9" d="M363.1603 173.4334 C363.1603 175.0903 361.8172 176.4334 360.1603 176.4334 C358.5035 176.4334 357.1603 175.0903 357.1603 173.4334 C357.1603 171.7766 358.5035 170.4334 360.1603 170.4334 C361.8172 170.4334 363.1603 171.7766 363.1603 173.4334 Z" serie="LG European Index Trust" stroke="black"/>
			<path  fill="none" stroke-linejoin="miter" xValue="1.020204E12" yValue="139.8" d="M383.4956 187.1075 C383.4956 188.7644 382.1525 190.1075 380.4956 190.1075 C378.8388 190.1075 377.4956 188.7644 377.4956 187.1075 C377.4956 185.4507 378.8388 184.1075 380.4956 184.1075 C382.1525 184.1075 383.4956 185.4507 383.4956 187.1075 Z" serie="LG European Index Trust" stroke="black"/>
			<path  fill="none" stroke-linejoin="miter" xValue="1.0228824E12" yValue="137.0" d="M404.5088 196.4459 C404.5088 198.1028 403.1657 199.4459 401.5088 199.4459 C399.852 199.4459 398.5088 198.1028 398.5088 196.4459 C398.5088 194.7891 399.852 193.4459 401.5088 193.4459 C403.1657 193.4459 404.5088 194.7891 404.5088 196.4459 Z" serie="LG European Index Trust" stroke="black"/>
			<path  fill="none" stroke-linejoin="miter" xValue="1.0254744E12" yValue="132.8" d="M424.8441 210.4536 C424.8441 212.1104 423.501 213.4536 421.8441 213.4536 C420.1873 213.4536 418.8441 212.1104 418.8441 210.4536 C418.8441 208.7967 420.1873 207.4536 421.8441 207.4536 C423.501 207.4536 424.8441 208.7967 424.8441 210.4536 Z" serie="LG European Index Trust" stroke="black"/>
		</g>
		<g fill="gray" text-rendering="optimizeLegibility" stroke-width="0.5" font-family="sans-serif" stroke="gray">
			<rect fill="none" x="58.7783" width="728.2217" height="294.5938" y="33.6406" />
		</g>
	</g>
</svg>
