<svg fill-opacity="1" xlink="http://www.w3.org/1999/xlink" color-rendering="auto" color-interpolation="auto" stroke="black" text-rendering="auto" stroke-linecap="square" stroke-miterlimit="10" stroke-opacity="1" shape-rendering="auto" fill="black" stroke-dasharray="none" font-weight="normal" stroke-width="1" xmlns="http://www.w3.org/2000/svg" font-family="'Dialog'" font-style="normal" stroke-linejoin="miter" font-size="12" stroke-dashoffset="0" image-rendering="auto">
  <!--Generated by the Batik Graphics2D SVG Generator-->
  <defs id="genericDefs"/>
  
  <g>
      <rect width="600" height="400" fill="red" opacity="0.1"/>
    <defs id="defs1">
      <clippath clipPathUnits="userSpaceOnUse" id="clipPath0">
         <rect x="104.5566" y="33.6406" fill="silver" width="390.8867" height="189.125" stroke="none"/>
      </clippath>
      <clippath clipPathUnits="userSpaceOnUse" id="clipPath1">
        <path d="M0 0 L600 0 L600 400 L0 400 L0 0 Z"/>
      </clippath>
      <clippath clipPathUnits="userSpaceOnUse" id="clipPath2">
        <path d="M192.5283 63.8779 L192.5283 663.8779 L-207.4717 663.8779 L-207.4717 63.8779 L192.5283 63.8779 Z"/>
      </clippath>
      <clippath clipPathUnits="userSpaceOnUse" id="clipPath3">
        <path d="M146.75 109.6562 L146.75 709.6562 L-253.25 709.6562 L-253.25 109.6562 L146.75 109.6562 Z"/>
      </clippath>
      <clippath clipPathUnits="userSpaceOnUse" id="clipPath4">
        <path d="M407.4717 663.8779 L407.4717 63.8779 L807.4717 63.8779 L807.4717 663.8779 L407.4717 663.8779 Z"/>
      </clippath>
      <clippath clipPathUnits="userSpaceOnUse" id="clipPath5">
        <path d="M453.25 709.6562 L453.25 109.6562 L853.25 109.6562 L853.25 709.6562 L453.25 709.6562 Z"/>
      </clippath>
      <clippath clipPathUnits="userSpaceOnUse" id="clipPath6">
        <path d="M104.5566 33.6406 L104.5566 222.7656 L495.4434 222.7656 L495.4434 33.6406 Z"/>
      </clippath>
    </defs>
    <g fill="white" text-rendering="geometricPrecision" shape-rendering="crispEdges" stroke="white">
      <rect x="0" y="0" clip-path="url(#clipPath1)" width="600" height="400" stroke="none"/>
    </g>
    <g text-rendering="geometricPrecision" font-size="18" shape-rendering="crispEdges" font-weight="bold" font-family="sans-serif">
      <text space="preserve" x="209.481" y="19.0967" clip-path="url(#clipPath1)" stroke="none">Multiple Axis Demo 1</text>
    </g>
    <g fill="white" text-rendering="geometricPrecision" shape-rendering="crispEdges" font-family="sans-serif" stroke="white">
      <rect x="1" y="270.4375" clip-path="url(#clipPath1)" width="598" height="128.5625" stroke="none"/>
      <line clip-path="url(#clipPath1)" fill="none" x1="1.5" x2="598.5" y1="270.9375" y2="270.9375" stroke="black"/>
      <line clip-path="url(#clipPath1)" fill="none" x1="1.5" x2="598.5" y1="398.5" y2="398.5" stroke="black"/>
      <line clip-path="url(#clipPath1)" fill="none" x1="1.5" x2="1.5" y1="398.5" y2="270.9375" stroke="black"/>
      <line clip-path="url(#clipPath1)" fill="none" x1="598.5" x2="598.5" y1="398.5" y2="270.9375" stroke="black"/>
      <path fill="none" d="M5 281.9844 L19 281.9844" clip-path="url(#clipPath1)" stroke-linejoin="bevel" stroke="black"/>
      <path fill="black" d="M15 281.9844 C15 283.6412 13.6569 284.9844 12 284.9844 C10.3431 284.9844 9 283.6412 9 281.9844 C9 280.3275 10.3431 278.9844 12 278.9844 C13.6569 278.9844 15 280.3275 15 281.9844 Z" clip-path="url(#clipPath1)" stroke-linejoin="bevel" stroke="none"/>
      <path fill="none" d="M15 281.9844 C15 283.6412 13.6569 284.9844 12 284.9844 C10.3431 284.9844 9 283.6412 9 281.9844 C9 280.3275 10.3431 278.9844 12 278.9844 C13.6569 278.9844 15 280.3275 15 281.9844 Z" clip-path="url(#clipPath1)" stroke="black"/>
      <text x="23" y="286.502" clip-path="url(#clipPath1)" fill="black" stroke="none" space="preserve">LG European Index Trust</text>
    </g>
    <g fill="rgb(255,85,85)" text-rendering="geometricPrecision" font-family="sans-serif" stroke-linejoin="bevel" shape-rendering="crispEdges" stroke="rgb(255,85,85)">
      <path fill="none" d="M171.7461 281.9844 L185.7461 281.9844" clip-path="url(#clipPath1)"/>
      <path d="M175.7461 278.9844 L181.7461 278.9844 L181.7461 284.9844 L175.7461 284.9844 L175.7461 278.9844 Z" clip-path="url(#clipPath1)" stroke="none"/>
      <path fill="none" d="M175.7461 278.9844 L181.7461 278.9844 L181.7461 284.9844 L175.7461 284.9844 L175.7461 278.9844 Z" clip-path="url(#clipPath1)" stroke-linejoin="miter"/>
      <text x="189.746" y="286.502" clip-path="url(#clipPath1)" fill="black" stroke-linejoin="miter" stroke="none" space="preserve">LG UK Index Trust MF</text>
    </g>
    <g fill="rgb(85,85,255)" text-rendering="geometricPrecision" font-family="sans-serif" stroke-linejoin="bevel" shape-rendering="crispEdges" stroke="rgb(85,85,255)">
      <path fill="none" d="M323.7793 281.9844 L337.7793 281.9844" clip-path="url(#clipPath1)"/>
      <path d="M333.7793 281.9844 C333.7793 283.6412 332.4362 284.9844 330.7793 284.9844 C329.1224 284.9844 327.7793 283.6412 327.7793 281.9844 C327.7793 280.3275 329.1224 278.9844 330.7793 278.9844 C332.4362 278.9844 333.7793 280.3275 333.7793 281.9844 Z" clip-path="url(#clipPath1)" stroke="none"/>
      <path fill="none" d="M333.7793 281.9844 C333.7793 283.6412 332.4362 284.9844 330.7793 284.9844 C329.1224 284.9844 327.7793 283.6412 327.7793 281.9844 C327.7793 280.3275 329.1224 278.9844 330.7793 278.9844 C332.4362 278.9844 333.7793 280.3275 333.7793 281.9844 Z" clip-path="url(#clipPath1)" stroke-linejoin="miter"/>
      <text x="341.779" y="286.502" clip-path="url(#clipPath1)" fill="black" stroke-linejoin="miter" stroke="none" space="preserve">LG European Index Trust Men</text>
    </g>
    <g fill="rgb(85,255,85)" text-rendering="geometricPrecision" font-family="sans-serif" stroke-linejoin="bevel" shape-rendering="crispEdges" stroke="rgb(85,255,85)">
      <path fill="none" d="M5 303.0781 L19 303.0781" clip-path="url(#clipPath1)"/>
      <path d="M12 300.0781 L15 306.0781 L9 306.0781 Z" clip-path="url(#clipPath1)" fill-rule="evenodd" stroke="none"/>
      <path fill="none" d="M12 300.0781 L15 306.0781 L9 306.0781 Z" clip-path="url(#clipPath1)" fill-rule="evenodd" stroke-linejoin="miter"/>
      <text x="23" y="307.596" clip-path="url(#clipPath1)" fill="black" stroke-linejoin="miter" stroke="none" space="preserve">LG European Index Trust Women</text>
    </g>
    <g fill="red" text-rendering="geometricPrecision" font-family="sans-serif" stroke-linejoin="bevel" shape-rendering="crispEdges" stroke="red">
      <path fill="none" d="M216.4238 303.0781 L230.4238 303.0781" clip-path="url(#clipPath1)"/>
      <path d="M226.4238 303.0781 C226.4238 304.735 225.0807 306.0781 223.4238 306.0781 C221.767 306.0781 220.4238 304.735 220.4238 303.0781 C220.4238 301.4213 221.767 300.0781 223.4238 300.0781 C225.0807 300.0781 226.4238 301.4213 226.4238 303.0781 Z" clip-path="url(#clipPath1)" stroke="none"/>
      <path fill="none" d="M226.4238 303.0781 C226.4238 304.735 225.0807 306.0781 223.4238 306.0781 C221.767 306.0781 220.4238 304.735 220.4238 303.0781 C220.4238 301.4213 221.767 300.0781 223.4238 300.0781 C225.0807 300.0781 226.4238 301.4213 226.4238 303.0781 Z" clip-path="url(#clipPath1)" stroke-linejoin="miter"/>
      <text x="234.424" y="307.596" clip-path="url(#clipPath1)" fill="black" stroke-linejoin="miter" stroke="none" space="preserve">LG European Index Trust</text>
    </g>
    <g fill="rgb(255,255,85)" text-rendering="geometricPrecision" font-family="sans-serif" stroke-linejoin="bevel" shape-rendering="crispEdges" stroke="rgb(255,255,85)">
      <path fill="none" d="M383.1699 303.0781 L397.1699 303.0781" clip-path="url(#clipPath1)"/>
      <path d="M390.1699 300.0781 L393.1699 303.0781 L390.1699 306.0781 L387.1699 303.0781 Z" clip-path="url(#clipPath1)" fill-rule="evenodd" stroke="none"/>
      <path fill="none" d="M390.1699 300.0781 L393.1699 303.0781 L390.1699 306.0781 L387.1699 303.0781 Z" clip-path="url(#clipPath1)" fill-rule="evenodd" stroke-linejoin="miter"/>
      <text x="401.17" y="307.596" clip-path="url(#clipPath1)" fill="black" stroke-linejoin="miter" stroke="none" space="preserve">LG UK Index Trust MF</text>
    </g>
    <g fill="rgb(255,85,255)" text-rendering="geometricPrecision" font-family="sans-serif" stroke-linejoin="bevel" shape-rendering="crispEdges" stroke="rgb(255,85,255)">
      <path fill="none" d="M5 324.1719 L19 324.1719" clip-path="url(#clipPath1)"/>
      <path d="M9 322.6719 L15 322.6719 L15 325.6719 L9 325.6719 L9 322.6719 Z" clip-path="url(#clipPath1)" stroke="none"/>
      <path fill="none" d="M9 322.6719 L15 322.6719 L15 325.6719 L9 325.6719 L9 322.6719 Z" clip-path="url(#clipPath1)" stroke-linejoin="miter"/>
      <text x="23" y="328.69" clip-path="url(#clipPath1)" fill="black" stroke-linejoin="miter" stroke="none" space="preserve">LG European Index Trust Men</text>
    </g>
    <g fill="rgb(85,255,255)" text-rendering="geometricPrecision" font-family="sans-serif" stroke-linejoin="bevel" shape-rendering="crispEdges" stroke="rgb(85,255,255)">
      <path fill="none" d="M198.4238 324.1719 L212.4238 324.1719" clip-path="url(#clipPath1)"/>
      <path d="M202.4238 321.1719 L208.4238 321.1719 L205.4238 327.1719 Z" clip-path="url(#clipPath1)" fill-rule="evenodd" stroke="none"/>
      <path fill="none" d="M202.4238 321.1719 L208.4238 321.1719 L205.4238 327.1719 Z" clip-path="url(#clipPath1)" fill-rule="evenodd" stroke-linejoin="miter"/>
      <text x="216.424" y="328.69" clip-path="url(#clipPath1)" fill="black" stroke-linejoin="miter" stroke="none" space="preserve">LG European Index Trust Women</text>
    </g>
    <g fill="blue" text-rendering="geometricPrecision" font-family="sans-serif" stroke-linejoin="bevel" shape-rendering="crispEdges" stroke="blue">
      <path fill="none" d="M409.8477 324.1719 L423.8477 324.1719" clip-path="url(#clipPath1)"/>
      <path d="M419.8477 324.1719 C419.8477 325.8287 418.5045 327.1719 416.8477 327.1719 C415.1908 327.1719 413.8477 325.8287 413.8477 324.1719 C413.8477 322.515 415.1908 321.1719 416.8477 321.1719 C418.5045 321.1719 419.8477 322.515 419.8477 324.1719 Z" clip-path="url(#clipPath1)" stroke="none"/>
      <path fill="none" d="M419.8477 324.1719 C419.8477 325.8287 418.5045 327.1719 416.8477 327.1719 C415.1908 327.1719 413.8477 325.8287 413.8477 324.1719 C413.8477 322.515 415.1908 321.1719 416.8477 321.1719 C418.5045 321.1719 419.8477 322.515 419.8477 324.1719 Z" clip-path="url(#clipPath1)" stroke-linejoin="miter"/>
      <text x="427.848" y="328.69" clip-path="url(#clipPath1)" fill="black" stroke-linejoin="miter" stroke="none" space="preserve">LG European Index Trust</text>
    </g>
    <g fill="rgb(255,175,175)" text-rendering="geometricPrecision" font-family="sans-serif" stroke-linejoin="bevel" shape-rendering="crispEdges" stroke="rgb(255,175,175)">
      <path fill="none" d="M5 345.2656 L19 345.2656" clip-path="url(#clipPath1)"/>
      <path d="M15 345.2656 C15 346.0941 13.6569 346.7656 12 346.7656 C10.3431 346.7656 9 346.0941 9 345.2656 C9 344.4372 10.3431 343.7656 12 343.7656 C13.6569 343.7656 15 344.4372 15 345.2656 Z" clip-path="url(#clipPath1)" stroke="none"/>
      <path fill="none" d="M15 345.2656 C15 346.0941 13.6569 346.7656 12 346.7656 C10.3431 346.7656 9 346.0941 9 345.2656 C9 344.4372 10.3431 343.7656 12 343.7656 C13.6569 343.7656 15 344.4372 15 345.2656 Z" clip-path="url(#clipPath1)" stroke-linejoin="miter"/>
      <text x="23" y="349.783" clip-path="url(#clipPath1)" fill="black" stroke-linejoin="miter" stroke="none" space="preserve">LG UK Index Trust MF</text>
    </g>
    <g fill="gray" text-rendering="geometricPrecision" font-family="sans-serif" stroke-linejoin="bevel" shape-rendering="crispEdges" stroke="gray">
      <path fill="none" d="M157.0332 345.2656 L171.0332 345.2656" clip-path="url(#clipPath1)"/>
      <path d="M161.0332 342.2656 L167.0332 345.2656 L161.0332 348.2656 Z" clip-path="url(#clipPath1)" fill-rule="evenodd" stroke="none"/>
      <path fill="none" d="M161.0332 342.2656 L167.0332 345.2656 L161.0332 348.2656 Z" clip-path="url(#clipPath1)" fill-rule="evenodd" stroke-linejoin="miter"/>
      <text x="175.033" y="349.783" clip-path="url(#clipPath1)" fill="black" stroke-linejoin="miter" stroke="none" space="preserve">LG European Index Trust Men</text>
    </g>
    <g fill="rgb(192,0,0)" text-rendering="geometricPrecision" font-family="sans-serif" stroke-linejoin="bevel" shape-rendering="crispEdges" stroke="rgb(192,0,0)">
      <path fill="none" d="M350.457 345.2656 L364.457 345.2656" clip-path="url(#clipPath1)"/>
      <path d="M355.957 342.2656 L358.957 342.2656 L358.957 348.2656 L355.957 348.2656 L355.957 342.2656 Z" clip-path="url(#clipPath1)" stroke="none"/>
      <path fill="none" d="M355.957 342.2656 L358.957 342.2656 L358.957 348.2656 L355.957 348.2656 L355.957 342.2656 Z" clip-path="url(#clipPath1)" stroke-linejoin="miter"/>
      <text x="368.457" y="349.783" clip-path="url(#clipPath1)" fill="black" stroke-linejoin="miter" stroke="none" space="preserve">LG European Index Trust Women</text>
    </g>
    <g fill="lime" text-rendering="geometricPrecision" font-family="sans-serif" stroke-linejoin="bevel" shape-rendering="crispEdges" stroke="lime">
      <path fill="none" d="M5 366.3594 L19 366.3594" clip-path="url(#clipPath1)"/>
      <path d="M15 366.3594 C15 368.0162 13.6569 369.3594 12 369.3594 C10.3431 369.3594 9 368.0162 9 366.3594 C9 364.7025 10.3431 363.3594 12 363.3594 C13.6569 363.3594 15 364.7025 15 366.3594 Z" clip-path="url(#clipPath1)" stroke="none"/>
      <path fill="none" d="M15 366.3594 C15 368.0162 13.6569 369.3594 12 369.3594 C10.3431 369.3594 9 368.0162 9 366.3594 C9 364.7025 10.3431 363.3594 12 363.3594 C13.6569 363.3594 15 364.7025 15 366.3594 Z" clip-path="url(#clipPath1)" stroke-linejoin="miter"/>
      <text x="23" y="370.877" clip-path="url(#clipPath1)" fill="black" stroke-linejoin="miter" stroke="none" space="preserve">LG European Index Trust</text>
    </g>
    <g fill="rgb(0,0,192)" text-rendering="geometricPrecision" font-family="sans-serif" stroke-linejoin="bevel" shape-rendering="crispEdges" stroke="rgb(0,0,192)">
      <path fill="none" d="M171.7461 366.3594 L185.7461 366.3594" clip-path="url(#clipPath1)"/>
      <path d="M175.7461 366.3594 L181.7461 363.3594 L181.7461 369.3594 Z" clip-path="url(#clipPath1)" fill-rule="evenodd" stroke="none"/>
      <path fill="none" d="M175.7461 366.3594 L181.7461 363.3594 L181.7461 369.3594 Z" clip-path="url(#clipPath1)" fill-rule="evenodd" stroke-linejoin="miter"/>
      <text x="189.746" y="370.877" clip-path="url(#clipPath1)" fill="black" stroke-linejoin="miter" stroke="none" space="preserve">LG UK Index Trust MF</text>
    </g>
    <g fill="rgb(0,192,0)" text-rendering="geometricPrecision" font-family="sans-serif" stroke-linejoin="bevel" shape-rendering="crispEdges" stroke="rgb(0,192,0)">
      <path fill="none" d="M323.7793 366.3594 L337.7793 366.3594" clip-path="url(#clipPath1)"/>
      <path d="M327.7793 363.3594 L333.7793 363.3594 L333.7793 369.3594 L327.7793 369.3594 L327.7793 363.3594 Z" clip-path="url(#clipPath1)" stroke="none"/>
      <path fill="none" d="M327.7793 363.3594 L333.7793 363.3594 L333.7793 369.3594 L327.7793 369.3594 L327.7793 363.3594 Z" clip-path="url(#clipPath1)" stroke-linejoin="miter"/>
      <text x="341.779" y="370.877" clip-path="url(#clipPath1)" fill="black" stroke-linejoin="miter" stroke="none" space="preserve">LG European Index Trust Men</text>
    </g>
    <g fill="rgb(192,192,0)" text-rendering="geometricPrecision" font-family="sans-serif" stroke-linejoin="bevel" shape-rendering="crispEdges" stroke="rgb(192,192,0)">
      <path fill="none" d="M5 387.4531 L19 387.4531" clip-path="url(#clipPath1)"/>
      <path d="M15 387.4531 C15 389.11 13.6569 390.4531 12 390.4531 C10.3431 390.4531 9 389.11 9 387.4531 C9 385.7963 10.3431 384.4531 12 384.4531 C13.6569 384.4531 15 385.7963 15 387.4531 Z" clip-path="url(#clipPath1)" stroke="none"/>
      <path fill="none" d="M15 387.4531 C15 389.11 13.6569 390.4531 12 390.4531 C10.3431 390.4531 9 389.11 9 387.4531 C9 385.7963 10.3431 384.4531 12 384.4531 C13.6569 384.4531 15 385.7963 15 387.4531 Z" clip-path="url(#clipPath1)" stroke-linejoin="miter"/>
      <text x="23" y="391.971" clip-path="url(#clipPath1)" fill="black" stroke-linejoin="miter" stroke="none" space="preserve">LG European Index Trust Women</text>
    </g>
    <g font-size="10" fill="white" text-rendering="geometricPrecision" font-family="sans-serif" shape-rendering="crispEdges" stroke="white">
      <line clip-path="url(#clipPath1)" fill="none" x1="104.5566" x2="495.4434" y1="227.7656" y2="227.7656" stroke="gray"/>
      <text x="123.596" y="241.819" clip-path="url(#clipPath1)" fill="black" stroke="none" space="preserve">mai-2001</text>
    </g>
    <g font-size="10" fill="gray" text-rendering="geometricPrecision" font-family="sans-serif" shape-rendering="crispEdges" stroke="gray">
      <line clip-path="url(#clipPath1)" fill="none" x1="144.4408" x2="144.4408" y1="229.7656" y2="227.7656"/>
      <text x="165.566" y="241.819" clip-path="url(#clipPath1)" fill="black" stroke="none" space="preserve">sept.-2001</text>
    </g>
    <g font-size="10" fill="gray" text-rendering="geometricPrecision" font-family="sans-serif" shape-rendering="crispEdges" stroke="gray">
      <line clip-path="url(#clipPath1)" fill="none" x1="189.1938" x2="189.1938" y1="229.7656" y2="227.7656"/>
      <text x="210.249" y="241.819" clip-path="url(#clipPath1)" fill="black" stroke="none" space="preserve">janv.-2002</text>
    </g>
    <g font-size="10" fill="gray" text-rendering="geometricPrecision" font-family="sans-serif" shape-rendering="crispEdges" stroke="gray">
      <line clip-path="url(#clipPath1)" fill="none" x1="233.5982" x2="233.5982" y1="229.7656" y2="227.7656"/>
      <text x="256.4" y="241.819" clip-path="url(#clipPath1)" fill="black" stroke="none" space="preserve">mai-2002</text>
    </g>
    <g font-size="10" fill="gray" text-rendering="geometricPrecision" font-family="sans-serif" shape-rendering="crispEdges" stroke="gray">
      <line clip-path="url(#clipPath1)" fill="none" x1="277.2445" x2="277.2445" y1="229.7656" y2="227.7656"/>
      <text x="298.37" y="241.819" clip-path="url(#clipPath1)" fill="black" stroke="none" space="preserve">sept.-2002</text>
    </g>
    <g font-size="10" fill="gray" text-rendering="geometricPrecision" font-family="sans-serif" shape-rendering="crispEdges" stroke="gray">
      <line clip-path="url(#clipPath1)" fill="none" x1="321.9975" x2="321.9975" y1="229.7656" y2="227.7656"/>
      <text x="343.052" y="241.819" clip-path="url(#clipPath1)" fill="black" stroke="none" space="preserve">janv.-2003</text>
    </g>
    <g font-size="10" fill="gray" text-rendering="geometricPrecision" font-family="sans-serif" shape-rendering="crispEdges" stroke="gray">
      <line clip-path="url(#clipPath1)" fill="none" x1="366.4019" x2="366.4019" y1="229.7656" y2="227.7656"/>
      <text x="389.203" y="241.819" clip-path="url(#clipPath1)" fill="black" stroke="none" space="preserve">mai-2003</text>
    </g>
    <g font-size="10" fill="gray" text-rendering="geometricPrecision" font-family="sans-serif" shape-rendering="crispEdges" stroke="gray">
      <line clip-path="url(#clipPath1)" fill="none" x1="410.0482" x2="410.0482" y1="229.7656" y2="227.7656"/>
      <text x="431.173" y="241.819" clip-path="url(#clipPath1)" fill="black" stroke="none" space="preserve">sept.-2003</text>
    </g>
    <g font-size="10" fill="gray" text-rendering="geometricPrecision" font-family="sans-serif" shape-rendering="crispEdges" stroke="gray">
      <line clip-path="url(#clipPath1)" fill="none" x1="454.8012" x2="454.8012" y1="229.7656" y2="227.7656"/>
      <text font-size="12" x="267.659" y="259.408" clip-path="url(#clipPath1)" fill="black" stroke="none" space="preserve">Time of Day</text>
    </g>
    <g fill="gray" text-rendering="geometricPrecision" shape-rendering="crispEdges" font-family="sans-serif" stroke="gray">
      <line clip-path="url(#clipPath1)" fill="none" x1="99.5566" x2="99.5566" y1="33.6406" y2="222.7656"/>
      <text font-size="10" x="76.8721" y="221.145" clip-path="url(#clipPath1)" fill="black" stroke="none" space="preserve">100</text>
    </g>
    <g font-size="10" fill="gray" text-rendering="geometricPrecision" font-family="sans-serif" shape-rendering="crispEdges" stroke="gray">
      <line clip-path="url(#clipPath1)" fill="none" x1="97.5566" x2="99.5566" y1="217.3807" y2="217.3807"/>
      <text x="76.8721" y="199.734" clip-path="url(#clipPath1)" fill="black" stroke="none" space="preserve">110</text>
    </g>
    <g font-size="10" fill="gray" text-rendering="geometricPrecision" font-family="sans-serif" shape-rendering="crispEdges" stroke="gray">
      <line clip-path="url(#clipPath1)" fill="none" x1="97.5566" x2="99.5566" y1="195.9695" y2="195.9695"/>
      <text x="76.8721" y="178.323" clip-path="url(#clipPath1)" fill="black" stroke="none" space="preserve">120</text>
    </g>
    <g font-size="10" fill="gray" text-rendering="geometricPrecision" font-family="sans-serif" shape-rendering="crispEdges" stroke="gray">
      <line clip-path="url(#clipPath1)" fill="none" x1="97.5566" x2="99.5566" y1="174.5583" y2="174.5583"/>
      <text x="76.8721" y="156.912" clip-path="url(#clipPath1)" fill="black" stroke="none" space="preserve">130</text>
    </g>
    <g font-size="10" fill="gray" text-rendering="geometricPrecision" font-family="sans-serif" shape-rendering="crispEdges" stroke="gray">
      <line clip-path="url(#clipPath1)" fill="none" x1="97.5566" x2="99.5566" y1="153.1472" y2="153.1472"/>
      <text x="76.8721" y="135.501" clip-path="url(#clipPath1)" fill="black" stroke="none" space="preserve">140</text>
    </g>
    <g font-size="10" fill="gray" text-rendering="geometricPrecision" font-family="sans-serif" shape-rendering="crispEdges" stroke="gray">
      <line clip-path="url(#clipPath1)" fill="none" x1="97.5566" x2="99.5566" y1="131.736" y2="131.736"/>
      <text x="76.8721" y="114.089" clip-path="url(#clipPath1)" fill="black" stroke="none" space="preserve">150</text>
    </g>
    <g font-size="10" fill="gray" text-rendering="geometricPrecision" font-family="sans-serif" shape-rendering="crispEdges" stroke="gray">
      <line clip-path="url(#clipPath1)" fill="none" x1="97.5566" x2="99.5566" y1="110.3248" y2="110.3248"/>
      <text x="76.8721" y="92.6782" clip-path="url(#clipPath1)" fill="black" stroke="none" space="preserve">160</text>
    </g>
    <g font-size="10" fill="gray" text-rendering="geometricPrecision" font-family="sans-serif" shape-rendering="crispEdges" stroke="gray">
      <line clip-path="url(#clipPath1)" fill="none" x1="97.5566" x2="99.5566" y1="88.9136" y2="88.9136"/>
      <text x="76.8721" y="71.2671" clip-path="url(#clipPath1)" fill="black" stroke="none" space="preserve">170</text>
    </g>
    <g font-size="10" fill="gray" text-rendering="geometricPrecision" font-family="sans-serif" shape-rendering="crispEdges" stroke="gray">
      <line clip-path="url(#clipPath1)" fill="none" x1="97.5566" x2="99.5566" y1="67.5024" y2="67.5024"/>
      <text x="76.8721" y="49.8559" clip-path="url(#clipPath1)" fill="black" stroke="none" space="preserve">180</text>
    </g>
    <g font-size="10" fill="gray" text-rendering="geometricPrecision" font-family="sans-serif" shape-rendering="crispEdges" stroke="gray">
      <line clip-path="url(#clipPath1)" fill="none" x1="97.5566" x2="99.5566" y1="46.0912" y2="46.0912"/>
      <text font-size="12" x="28.6533" y="132.721" transform="matrix(0, -1, 1, 0, -63.8779, 192.528)" clip-path="url(#clipPath2)" fill="black" stroke="none" space="preserve">Primary Axes</text>
    </g>
    <g fill="gray" text-rendering="geometricPrecision" shape-rendering="crispEdges" font-family="sans-serif" stroke="gray">
      <line clip-path="url(#clipPath1)" fill="none" x1="53.7783" x2="53.7783" y1="33.6406" y2="222.7656"/>
      <text font-size="10" x="31.0938" y="221.145" clip-path="url(#clipPath1)" fill="red" stroke="none" space="preserve">100</text>
    </g>
    <g font-size="10" fill="gray" text-rendering="geometricPrecision" font-family="sans-serif" shape-rendering="crispEdges" stroke="gray">
      <line clip-path="url(#clipPath1)" fill="none" x1="51.7783" x2="53.7783" y1="217.3807" y2="217.3807"/>
      <text x="31.0938" y="199.734" clip-path="url(#clipPath1)" fill="red" stroke="none" space="preserve">110</text>
    </g>
    <g font-size="10" fill="gray" text-rendering="geometricPrecision" font-family="sans-serif" shape-rendering="crispEdges" stroke="gray">
      <line clip-path="url(#clipPath1)" fill="none" x1="51.7783" x2="53.7783" y1="195.9695" y2="195.9695"/>
      <text x="31.0938" y="178.323" clip-path="url(#clipPath1)" fill="red" stroke="none" space="preserve">120</text>
    </g>
    <g font-size="10" fill="gray" text-rendering="geometricPrecision" font-family="sans-serif" shape-rendering="crispEdges" stroke="gray">
      <line clip-path="url(#clipPath1)" fill="none" x1="51.7783" x2="53.7783" y1="174.5583" y2="174.5583"/>
      <text x="31.0938" y="156.912" clip-path="url(#clipPath1)" fill="red" stroke="none" space="preserve">130</text>
    </g>
    <g font-size="10" fill="gray" text-rendering="geometricPrecision" font-family="sans-serif" shape-rendering="crispEdges" stroke="gray">
      <line clip-path="url(#clipPath1)" fill="none" x1="51.7783" x2="53.7783" y1="153.1472" y2="153.1472"/>
      <text x="31.0938" y="135.501" clip-path="url(#clipPath1)" fill="red" stroke="none" space="preserve">140</text>
    </g>
    <g font-size="10" fill="gray" text-rendering="geometricPrecision" font-family="sans-serif" shape-rendering="crispEdges" stroke="gray">
      <line clip-path="url(#clipPath1)" fill="none" x1="51.7783" x2="53.7783" y1="131.736" y2="131.736"/>
      <text x="31.0938" y="114.089" clip-path="url(#clipPath1)" fill="red" stroke="none" space="preserve">150</text>
    </g>
    <g font-size="10" fill="gray" text-rendering="geometricPrecision" font-family="sans-serif" shape-rendering="crispEdges" stroke="gray">
      <line clip-path="url(#clipPath1)" fill="none" x1="51.7783" x2="53.7783" y1="110.3248" y2="110.3248"/>
      <text x="31.0938" y="92.6782" clip-path="url(#clipPath1)" fill="red" stroke="none" space="preserve">160</text>
    </g>
    <g font-size="10" fill="gray" text-rendering="geometricPrecision" font-family="sans-serif" shape-rendering="crispEdges" stroke="gray">
      <line clip-path="url(#clipPath1)" fill="none" x1="51.7783" x2="53.7783" y1="88.9136" y2="88.9136"/>
      <text x="31.0938" y="71.2671" clip-path="url(#clipPath1)" fill="red" stroke="none" space="preserve">170</text>
    </g>
    <g font-size="10" fill="gray" text-rendering="geometricPrecision" font-family="sans-serif" shape-rendering="crispEdges" stroke="gray">
      <line clip-path="url(#clipPath1)" fill="none" x1="51.7783" x2="53.7783" y1="67.5024" y2="67.5024"/>
      <text x="31.0938" y="49.8559" clip-path="url(#clipPath1)" fill="red" stroke="none" space="preserve">180</text>
    </g>
    <g font-size="10" fill="gray" text-rendering="geometricPrecision" font-family="sans-serif" shape-rendering="crispEdges" stroke="gray">
      <line clip-path="url(#clipPath1)" fill="none" x1="51.7783" x2="53.7783" y1="46.0912" y2="46.0912"/>
      <text font-size="12" x="-17.1396" y="132.721" transform="matrix(0, -1, 1, 0, -109.656, 146.75)" clip-path="url(#clipPath3)" fill="red" stroke="none" space="preserve">Range Axis 2</text>
    </g>
    <g fill="gray" text-rendering="geometricPrecision" shape-rendering="crispEdges" font-family="sans-serif" stroke="gray">
      <line clip-path="url(#clipPath1)" fill="none" x1="500.4434" x2="500.4434" y1="33.6406" y2="222.7656"/>
      <text font-size="10" x="506.443" y="226.53" clip-path="url(#clipPath1)" fill="blue" stroke="none" space="preserve">0</text>
    </g>
    <g font-size="10" fill="gray" text-rendering="geometricPrecision" font-family="sans-serif" shape-rendering="crispEdges" stroke="gray">
      <line clip-path="url(#clipPath1)" fill="none" x1="502.4434" x2="500.4434" y1="222.7656" y2="222.7656"/>
      <text x="506.443" y="201.761" clip-path="url(#clipPath1)" fill="blue" stroke="none" space="preserve">25</text>
    </g>
    <g font-size="10" fill="gray" text-rendering="geometricPrecision" font-family="sans-serif" shape-rendering="crispEdges" stroke="gray">
      <line clip-path="url(#clipPath1)" fill="none" x1="502.4434" x2="500.4434" y1="197.9968" y2="197.9968"/>
      <text x="506.443" y="176.993" clip-path="url(#clipPath1)" fill="blue" stroke="none" space="preserve">50</text>
    </g>
    <g font-size="10" fill="gray" text-rendering="geometricPrecision" font-family="sans-serif" shape-rendering="crispEdges" stroke="gray">
      <line clip-path="url(#clipPath1)" fill="none" x1="502.4434" x2="500.4434" y1="173.2279" y2="173.2279"/>
      <text x="506.443" y="152.224" clip-path="url(#clipPath1)" fill="blue" stroke="none" space="preserve">75</text>
    </g>
    <g font-size="10" fill="gray" text-rendering="geometricPrecision" font-family="sans-serif" shape-rendering="crispEdges" stroke="gray">
      <line clip-path="url(#clipPath1)" fill="none" x1="502.4434" x2="500.4434" y1="148.4591" y2="148.4591"/>
      <text x="506.443" y="127.455" clip-path="url(#clipPath1)" fill="blue" stroke="none" space="preserve">100</text>
    </g>
    <g font-size="10" fill="gray" text-rendering="geometricPrecision" font-family="sans-serif" shape-rendering="crispEdges" stroke="gray">
      <line clip-path="url(#clipPath1)" fill="none" x1="502.4434" x2="500.4434" y1="123.6902" y2="123.6902"/>
      <text x="506.443" y="102.686" clip-path="url(#clipPath1)" fill="blue" stroke="none" space="preserve">125</text>
    </g>
    <g font-size="10" fill="gray" text-rendering="geometricPrecision" font-family="sans-serif" shape-rendering="crispEdges" stroke="gray">
      <line clip-path="url(#clipPath1)" fill="none" x1="502.4434" x2="500.4434" y1="98.9214" y2="98.9214"/>
      <text x="506.443" y="77.9172" clip-path="url(#clipPath1)" fill="blue" stroke="none" space="preserve">150</text>
    </g>
    <g font-size="10" fill="gray" text-rendering="geometricPrecision" font-family="sans-serif" shape-rendering="crispEdges" stroke="gray">
      <line clip-path="url(#clipPath1)" fill="none" x1="502.4434" x2="500.4434" y1="74.1525" y2="74.1525"/>
      <text x="506.443" y="53.1484" clip-path="url(#clipPath1)" fill="blue" stroke="none" space="preserve">175</text>
    </g>
    <g font-size="10" fill="gray" text-rendering="geometricPrecision" font-family="sans-serif" shape-rendering="crispEdges" stroke="gray">
      <line clip-path="url(#clipPath1)" fill="none" x1="502.4434" x2="500.4434" y1="49.3837" y2="49.3837"/>
      <text font-size="12" x="499.988" y="132.721" transform="matrix(0, 1, -1, 0, 663.878, -407.472)" clip-path="url(#clipPath4)" fill="blue" stroke="none" space="preserve">Range Axis 3</text>
    </g>
    <g fill="gray" text-rendering="geometricPrecision" shape-rendering="crispEdges" font-family="sans-serif" stroke="gray">
      <line clip-path="url(#clipPath1)" fill="none" x1="546.2217" x2="546.2217" y1="33.6406" y2="222.7656"/>
      <text font-size="10" x="552.222" y="226.53" clip-path="url(#clipPath1)" fill="lime" stroke="none" space="preserve">0</text>
    </g>
    <g font-size="10" fill="gray" text-rendering="geometricPrecision" font-family="sans-serif" shape-rendering="crispEdges" stroke="gray">
      <line clip-path="url(#clipPath1)" fill="none" x1="548.2217" x2="546.2217" y1="222.7656" y2="222.7656"/>
      <text x="552.222" y="201.761" clip-path="url(#clipPath1)" fill="lime" stroke="none" space="preserve">25</text>
    </g>
    <g font-size="10" fill="gray" text-rendering="geometricPrecision" font-family="sans-serif" shape-rendering="crispEdges" stroke="gray">
      <line clip-path="url(#clipPath1)" fill="none" x1="548.2217" x2="546.2217" y1="197.9968" y2="197.9968"/>
      <text x="552.222" y="176.993" clip-path="url(#clipPath1)" fill="lime" stroke="none" space="preserve">50</text>
    </g>
    <g font-size="10" fill="gray" text-rendering="geometricPrecision" font-family="sans-serif" shape-rendering="crispEdges" stroke="gray">
      <line clip-path="url(#clipPath1)" fill="none" x1="548.2217" x2="546.2217" y1="173.2279" y2="173.2279"/>
      <text x="552.222" y="152.224" clip-path="url(#clipPath1)" fill="lime" stroke="none" space="preserve">75</text>
    </g>
    <g font-size="10" fill="gray" text-rendering="geometricPrecision" font-family="sans-serif" shape-rendering="crispEdges" stroke="gray">
      <line clip-path="url(#clipPath1)" fill="none" x1="548.2217" x2="546.2217" y1="148.4591" y2="148.4591"/>
      <text x="552.222" y="127.455" clip-path="url(#clipPath1)" fill="lime" stroke="none" space="preserve">100</text>
    </g>
    <g font-size="10" fill="gray" text-rendering="geometricPrecision" font-family="sans-serif" shape-rendering="crispEdges" stroke="gray">
      <line clip-path="url(#clipPath1)" fill="none" x1="548.2217" x2="546.2217" y1="123.6902" y2="123.6902"/>
      <text x="552.222" y="102.686" clip-path="url(#clipPath1)" fill="lime" stroke="none" space="preserve">125</text>
    </g>
    <g font-size="10" fill="gray" text-rendering="geometricPrecision" font-family="sans-serif" shape-rendering="crispEdges" stroke="gray">
      <line clip-path="url(#clipPath1)" fill="none" x1="548.2217" x2="546.2217" y1="98.9214" y2="98.9214"/>
      <text x="552.222" y="77.9172" clip-path="url(#clipPath1)" fill="lime" stroke="none" space="preserve">150</text>
    </g>
    <g font-size="10" fill="gray" text-rendering="geometricPrecision" font-family="sans-serif" shape-rendering="crispEdges" stroke="gray">
      <line clip-path="url(#clipPath1)" fill="none" x1="548.2217" x2="546.2217" y1="74.1525" y2="74.1525"/>
      <text x="552.222" y="53.1484" clip-path="url(#clipPath1)" fill="lime" stroke="none" space="preserve">175</text>
    </g>
    <g font-size="10" fill="gray" text-rendering="geometricPrecision" font-family="sans-serif" shape-rendering="crispEdges" stroke="gray">
      <line clip-path="url(#clipPath1)" fill="none" x1="548.2217" x2="546.2217" y1="49.3837" y2="49.3837"/>
      <text font-size="12" x="545.767" y="132.721" transform="matrix(0, 1, -1, 0, 709.656, -453.25)" clip-path="url(#clipPath5)" fill="lime" stroke="none" space="preserve">Range Axis 4</text>
    </g>
    <g text-rendering="geometricPrecision" stroke="rgb(192,192,0)" id="canvas" style="cursor: move; left: 0px; top: 0px;" width="600" shape-rendering="crispEdges" fill="rgb(192,192,0)" height="400" font-family="sans-serif" x="0" stroke-linejoin="bevel" y="0">
      
      <rect width="600" height="400" fill="red" opacity="0.1"/>
      <g stroke-linecap="butt" fill="white" text-rendering="geometricPrecision" font-family="sans-serif" stroke-linejoin="bevel" shape-rendering="crispEdges" stroke-dasharray="2,2" stroke="white" stroke-width="0.5" stroke-miterlimit="0">
        <rect x="104.5566" y="33.6406" clip-path="url(#clipPath1)" fill="silver" width="390.8867" id="canvasRect" height="189.125" stroke="none"/>
        
      </g>
    <g fill="gray" text-rendering="geometricPrecision" font-family="sans-serif" shape-rendering="crispEdges" stroke="gray" stroke-width="0.5">
      <rect x="104.5566" y="33.6406" clip-path="url(#clipPath1)" fill="none" width="390.8867" height="189.125"/>
    </g>
  </g>
  <text id="text">X:Y:</text>
  <script>
    <![CDATA[
var svgDocument = null;
svgDocument = window.document;
//alert(svgDocument.getElementsByTagName('rect').length);

// definit une nouvelle propriete window reference top
top.addEvents = addEvents;
             // definition de la methode
             function addEvents () {
   var list = svgDocument.getElementsByTagName('path');
                   for(var i=0;i<list.length;i++){       if(i == list.length-1  list[i].parentNode.nodeName == 'g')           list[i].parentNode.setAttribute('id','canvas');                        var rectangle = list[i];   
                        rectangle.addEventListener('mouseover',highlight,false);
                        rectangle.addEventListener('mouseout',unhighlight,false);
                        //rectangle.addEventListener('mousemove',moveText,false);
                                               }             }
             function moveText(evt) { var text = svgDocument.getElementById('text');
                 if (text == null){alert('text is null');   
     var text = svgDocument.createElement('text');   
     evt.target.parentNode.appendChild(text); 
     text.setAttribute('id','text'); 
     text.setAttribute('width','200'); 
     text.setAttribute('height','100'); 
     text.setAttribute('fill','red'); 
     text.appendChild(document.createTextNode('X: Y: stronzo')); 
 }                 text.setAttribute('style','display:block;');
                 text.setAttribute('x',evt.clientX+10);
                 text.setAttribute('y',evt.clientY-10);
                 if(text.firstChild.data)
                      text.firstChild.data = 'X: '+evt.target.getAttribute('xValue')+',Y: '+parseInt(evt.target.getAttribute('yValue'));
                 else if(text.firstChild.nodeValue)
                      text.firstChild.nodeValue= 'X: '+evt.target.getAttribute('xValue')+',Y: '+parseInt(evt.target.getAttribute('yValue'));
             }             function displayText(evt) {
                  var text = svgDocument.getElementById('text');   
                  if(text.getAttribute('style').indexOf('none;')!=-1){
                        text.setAttribute('style','display:block;');
                  } else{  text.setAttribute('style','display:none;');}
             }
             // methode ajoutee si element rectangle
             function highlight(evt) {
                 //evt.target.setAttribute('default-fill',evt.target.getAttribute('fill'));  
                 //evt.target.setAttribute('fill','yellow');
svgDocument.getElementById('text').style.display='block';moveText(evt);
 if (evt.target.getAttribute('stroke') == 'none') {
                     evt.target.setAttribute('default-stroke',evt.target.getAttribute('stroke'));  
                     evt.target.setAttribute('stroke','yellow');
 }                 evt.target.setAttribute('default-stroke-width',evt.target.getAttribute('stroke-width'));  
                 evt.target.setAttribute('stroke-width','4');
             }
             function unhighlight(evt) {
                 //evt.target.setAttribute('fill',evt.target.getAttribute('default-fill'));  
svgDocument.getElementById('text').style.display='none';
                 if (evt.target.getAttribute('default-stroke'))
     evt.target.setAttribute('stroke',evt.target.getAttribute('default-stroke'));  
                 evt.target.setAttribute('stroke-width',evt.target.getAttribute('default-stroke-width'));  
             }
            loadOpenCharts('canvas');
            addEvents();
        ]]>
  </script>
</svg>